# xmcd
# Copyright (c) 1998 CDDB Inc.
#
# Track frame offsets:
#	180
#	15335
#	49045
#	64460
#	89030
#	102550
#	154605
#	163880
#	190395
#	202595
#	261775
#
# Disc length: 3690 seconds
#
# Revision: 1
# Processed by: cddbd v1.5.2PL0 Copyright (c) Steve Scherf et al.
# Submitted via: AudioCatalyst 2.10full
#
DISCID=930e680b
DTITLE=Ollivaud - 30 ôns de Calédo...neries CD2
DYEAR=1900
DGENRE=
TTITLE0=Yaka les laisser déconner
TTITLE1=Le pubococcygien
TTITLE2=En Calédonie c'est la crise
TTITLE3=La pêche de nuit
TTITLE4=Ils étaient populaires
TTITLE5=Mon idole... c'est Mickael
TTITLE6=Vient sur not'Caillou
TTITLE7=Revue de presse
TTITLE8=Y'en a pour toi fifis!
TTITLE9=Le tribunal
TTITLE10=Ver de Bancoule (version live 96)
EXTD=
EXTT0=
EXTT1=
EXTT2=
EXTT3=
EXTT4=
EXTT5=
EXTT6=
EXTT7=
EXTT8=
EXTT9=
EXTT10=
PLAYORDER=
